<mxfile host="app.diagrams.net" modified="2024-04-10T17:45:34.322Z" agent="Mozilla/5.0 (Macintosh; Intel Mac OS X 10_15_7) AppleWebKit/605.1.15 (KHTML, like Gecko) Version/17.4.1 Safari/605.1.15" etag="W-l0224lV2sSIYQYKeAm" version="24.2.3" type="github">
  <diagram name="Page-1" id="52a04d89-c75d-2922-d76d-85b35f80e030">
    <mxGraphModel dx="984" dy="666" grid="1" gridSize="10" guides="1" tooltips="1" connect="1" arrows="1" fold="1" page="1" pageScale="1" pageWidth="1100" pageHeight="850" background="none" math="0" shadow="0">
      <root>
        <mxCell id="0" />
        <mxCell id="1" parent="0" />
        <mxCell id="GLv8Abzz86HeR-K9PCVT-4" style="edgeStyle=orthogonalEdgeStyle;rounded=0;orthogonalLoop=1;jettySize=auto;html=1;" edge="1" parent="1" source="GLv8Abzz86HeR-K9PCVT-2" target="GLv8Abzz86HeR-K9PCVT-3">
          <mxGeometry relative="1" as="geometry" />
        </mxCell>
        <mxCell id="GLv8Abzz86HeR-K9PCVT-2" value="Bar" style="rounded=1;whiteSpace=wrap;html=1;" vertex="1" parent="1">
          <mxGeometry x="400" y="310" width="120" height="60" as="geometry" />
        </mxCell>
        <mxCell id="GLv8Abzz86HeR-K9PCVT-6" style="edgeStyle=orthogonalEdgeStyle;rounded=0;orthogonalLoop=1;jettySize=auto;html=1;" edge="1" parent="1" source="GLv8Abzz86HeR-K9PCVT-3" target="GLv8Abzz86HeR-K9PCVT-5">
          <mxGeometry relative="1" as="geometry" />
        </mxCell>
        <mxCell id="GLv8Abzz86HeR-K9PCVT-3" value="" style="rounded=1;whiteSpace=wrap;html=1;" vertex="1" parent="1">
          <mxGeometry x="560" y="240" width="120" height="60" as="geometry" />
        </mxCell>
        <mxCell id="GLv8Abzz86HeR-K9PCVT-5" value="" style="rounded=1;whiteSpace=wrap;html=1;" vertex="1" parent="1">
          <mxGeometry x="560" y="110" width="120" height="60" as="geometry" />
        </mxCell>
        <mxCell id="GLv8Abzz86HeR-K9PCVT-7" value="Foo" style="rounded=1;whiteSpace=wrap;html=1;" vertex="1" parent="1">
          <mxGeometry x="260" y="110" width="120" height="60" as="geometry" />
        </mxCell>
        <mxCell id="GLv8Abzz86HeR-K9PCVT-8" style="edgeStyle=orthogonalEdgeStyle;rounded=0;orthogonalLoop=1;jettySize=auto;html=1;" edge="1" parent="1" source="GLv8Abzz86HeR-K9PCVT-3" target="GLv8Abzz86HeR-K9PCVT-7">
          <mxGeometry relative="1" as="geometry">
            <mxPoint x="490" y="190" as="targetPoint" />
          </mxGeometry>
        </mxCell>
        <mxCell id="GLv8Abzz86HeR-K9PCVT-9" value="Baz" style="edgeLabel;html=1;align=center;verticalAlign=middle;resizable=0;points=[];" vertex="1" connectable="0" parent="GLv8Abzz86HeR-K9PCVT-8">
          <mxGeometry x="-0.2235" y="-3" relative="1" as="geometry">
            <mxPoint x="12" y="-67" as="offset" />
          </mxGeometry>
        </mxCell>
      </root>
    </mxGraphModel>
  </diagram>
</mxfile>
